<?xml version="1.0" encoding="UTF-8" standalone="no" ?>
<!DOCTYPE svg PUBLIC "-//W3C//DTD SVG 1.1//EN" "http://www.w3.org/Graphics/SVG/1.1/DTD/svg11.dtd">
<svg xmlns="http://www.w3.org/2000/svg" xmlns:xlink="http://www.w3.org/1999/xlink" version="1.1" width="1080" height="1080" viewBox="0 0 1080 1080" xml:space="preserve">
<desc>Created with Fabric.js 5.2.4</desc>
<defs>
</defs>
<g transform="matrix(1 0 0 1 540 540)" id="94cd097c-0050-4f5c-85ac-c86b7e6a89ca"  >
<rect style="stroke: none; stroke-width: 1; stroke-dasharray: none; stroke-linecap: butt; stroke-dashoffset: 0; stroke-linejoin: miter; stroke-miterlimit: 4; fill: rgb(255,255,255); fill-rule: nonzero; opacity: 1; visibility: hidden;" vector-effect="non-scaling-stroke"  x="-540" y="-540" rx="0" ry="0" width="1080" height="1080" />
</g>
<g transform="matrix(1 0 0 1 540 540)" id="6ee578ca-1ef5-4d15-a73b-9bdb7aed901c"  >
</g>
<g transform="matrix(1 0 0 1 540 540)" id="bbfb0efb-d614-497b-b738-6430976c6414"  >
<path style="stroke: rgb(219,30,30); stroke-width: 0; stroke-dasharray: none; stroke-linecap: butt; stroke-dashoffset: 0; stroke-linejoin: miter; stroke-miterlimit: 4; fill: rgb(255,255,255); fill-rule: nonzero; opacity: 1;" vector-effect="non-scaling-stroke"  transform=" translate(-28.64, -61.44)" d="M 32.499 0 C 36.935 0 40.425000000000004 1.281 42.967 3.819 C 45.482 6.349 46.751999999999995 9.826 46.751999999999995 14.3 C 46.751999999999995 18.838 44.589 22.872 40.230999999999995 26.41 C 35.849999999999994 29.948 30.767999999999994 31.728 24.976999999999997 31.728 C 20.624999999999996 31.728 17.164999999999996 30.51 14.511999999999997 28.068 C 11.860999999999997 25.598000000000003 10.535999999999998 22.403000000000002 10.535999999999998 18.429000000000002 C 10.535999999999998 13.422000000000002 12.698999999999998 9.107000000000003 17.000999999999998 5.442000000000002 C 21.301 1.816 26.465 0 32.499 0 L 32.499 0 z M 57.288 122.88 L 0 122.88 L 0 113.24 L 10.765 113.24 L 10.765 54.36 L 0 54.36 L 0 46.686 L 26.775 46.686 C 33.538 46.686 40.193 45.874 46.766999999999996 44.216 L 46.766999999999996 113.24000000000001 L 57.288 113.24000000000001 L 57.288 122.88 L 57.288 122.88 z" stroke-linecap="round" />
</g>
</svg>